<svg width="300" height="260" fill="none" xmlns="http://www.w3.org/2000/svg"><path fill="#fff" d="M0 0h300v260H0z"/><path d="M259.34 65.17a4.478 4.478 0 0 0 4.47-4.47v-4.76a4.463 4.463 0 0 0-1.309-3.16 4.472 4.472 0 0 0-3.161-1.31h-6.93V46a1.501 1.501 0 0 0-3 0v5.47H151.5V46a1.501 1.501 0 0 0-3 0v5.47H50.59V46a1.5 1.5 0 1 0-3 0v5.47h-6.93a4.47 4.47 0 0 0-4.47 4.47v4.76a4.48 4.48 0 0 0 4.47 4.47h6.93v43.64h-6.93a4.48 4.48 0 0 0-4.47 4.47v4.77a4.469 4.469 0 0 0 4.47 4.46h6.93v43.65h-6.93a4.48 4.48 0 0 0-4.47 4.47v4.76a4.471 4.471 0 0 0 4.47 4.47h6.93v39.88a1.502 1.502 0 0 0 2.561 1.061c.281-.282.44-.663.44-1.061v-39.88H148.5v39.88a1.5 1.5 0 0 0 3 0v-39.88h97.91v39.88a1.5 1.5 0 0 0 3 0v-39.88h6.93a4.483 4.483 0 0 0 3.161-1.309 4.463 4.463 0 0 0 1.309-3.161v-4.76a4.476 4.476 0 0 0-4.47-4.47h-6.93v-43.65h6.93a4.472 4.472 0 0 0 4.47-4.46v-4.77a4.476 4.476 0 0 0-4.47-4.47h-6.93V65.17h6.93ZM39.19 60.7v-4.76a1.47 1.47 0 0 1 1.47-1.47h218.68a1.472 1.472 0 0 1 1.47 1.47v4.76a1.468 1.468 0 0 1-1.47 1.47H40.66a1.47 1.47 0 0 1-1.47-1.47Zm11.4 4.47h97.91v43.64H50.59V65.17Zm0 57.34h97.91v43.65H50.59v-43.65Zm210.22 48.12v4.76a1.466 1.466 0 0 1-1.47 1.47H40.66a1.47 1.47 0 0 1-1.47-1.47v-4.76a1.468 1.468 0 0 1 1.47-1.47h218.68a1.47 1.47 0 0 1 1.47 1.47Zm-11.4-4.47H151.5v-43.65h97.91v43.65Zm11.4-52.88v4.77a1.459 1.459 0 0 1-1.47 1.46H40.66a1.462 1.462 0 0 1-1.47-1.46v-4.77a1.468 1.468 0 0 1 1.47-1.47h218.68a1.47 1.47 0 0 1 1.47 1.47Zm-11.4-4.47H151.5V65.17h97.91v43.64Z" fill="#CFD8DC"/><path d="M244 170c-.35-2.15-.68-4.2-1-6.1-1.3-8.53-2.84-16.17-4.48-24.25-1-4.94-2-10-3-15.36-.43-2.38-2.83-14.51-7.61-20-5.45-6.26-14.59-7-21-7A38.621 38.621 0 0 0 193.76 99a24.82 24.82 0 0 0-14 13 51.066 51.066 0 0 0-3.27 12l-.21 1.11a175.67 175.67 0 0 1-8.13 29.57c-11 .34-26 2.54-34.51 5.24-3.95 1.26-8.13 3.09-9.1 7.21-.97 4.12 2.77 9.92 6.47 12a18.371 18.371 0 0 0 8.55 1.91 19.76 19.76 0 0 0 3.25-.26c2.08-.37 4.11-.8 6.07-1.22 2.85-.61 5.79-1.23 8.89-1.65-3 6.71-5.26 13.92-3.9 21.22.87 4.66 3.35 10.52 5.65 13.34 1.89 2.31 5.41 6.61 14.24 6.61h58.52c4.39 0 10.64-3.6 14-11.5 2.66-6.39-.11-23.68-2.28-37.58Z" fill="#D2FD61"/><path opacity=".2" d="M246.611 188.4a1.46 1.46 0 0 0-.73-1.12 1.477 1.477 0 0 0-1.34-.09l-10.87 4.59a106.97 106.97 0 0 1-12.35 4.61 51.36 51.36 0 0 1-26.51.3 105.424 105.424 0 0 1-13.55-4.83l-23.62-9.66a1.514 1.514 0 0 0-1.18 0 1.502 1.502 0 0 0-.8.87c-2.12 6.06-2.69 11.13-1.79 16 .87 4.66 3.35 10.52 5.65 13.34 1.89 2.31 5.41 6.61 14.24 6.61h58.52c4.39 0 10.64-3.6 14-11.5 1.34-3.22 1.45-9.29.33-19.12Z" fill="#136D09"/><path fill-rule="evenodd" clip-rule="evenodd" d="M217.35 117.57a3.007 3.007 0 0 1 1.759-2.863 3 3 0 1 1 1.241 5.733 2.95 2.95 0 0 1-3-2.87ZM186.631 118.36a2.999 2.999 0 0 1 5.929-.765 3.005 3.005 0 0 1-1.25 3.119 3 3 0 0 1-1.679.516 2.94 2.94 0 0 1-3-2.87" fill="#136D09"/><path d="M205.3 125.34c-3.05 0-6.05-1-7.56-2.54a1.502 1.502 0 0 1-.058-2.2 1.502 1.502 0 0 1 2.198.11c.94 1 3.53 1.81 6.29 1.59a5.258 5.258 0 0 0 3.92-1.68 1.502 1.502 0 0 1 2.681.621c.071.386-.012.784-.231 1.109-1.18 1.68-3.36 2.72-6.13 2.94-.41.03-.74.05-1.11.05ZM146.001 169.29l-20.23-12.08a1.495 1.495 0 0 0-.24-1.41l-5.53-6.8a3.895 3.895 0 0 0-5.076-.884c-.535.33-.983.784-1.304 1.324l-5.75 9.63a3.89 3.89 0 0 0 2.63 5.83l8.57 1.59c.089.01.18.01.27 0a1.482 1.482 0 0 0 1.09-.47l20.22 12.07a2.88 2.88 0 0 0 2.22.33 2.884 2.884 0 0 0 1.79-1.34l2.34-3.78a2.932 2.932 0 0 0-1-4.01Zm-35.53-7.84a.897.897 0 0 1 0-.83l5.76-9.63a.859.859 0 0 1 .7-.43h.07a.866.866 0 0 1 .7.33l4.81 6-3.88 6.5-7.54-1.4a.853.853 0 0 1-.66-.54h.04Zm31.73 14.06-20.13-12 1.81-3 .39-.67 20.13 12-2.2 3.67Z" fill="#136D09"/><path d="M138 169.13c-2.23-3.24-4.75-5-7.48-5.39a7.579 7.579 0 0 0-6.76 2.83 5.662 5.662 0 0 0-1 1.84c-.36 1.26-.36 3.31 1.73 5.92 1.42 1.78 5 4 6.57 4.75a7.896 7.896 0 0 0 3.54.89c.98.015 1.946-.23 2.8-.71 1.09-.64 2.4-2 2.5-4.82a9.073 9.073 0 0 0-1.9-5.31Z" fill="#D2FD61"/><path d="M137.26 177.48a4.375 4.375 0 0 0 1.14-3.09 7.615 7.615 0 0 0-1.67-4.41c-1.56-2.26-3.7-4.42-6.42-4.75a6.072 6.072 0 0 0-5.4 2.26" fill="#D2FD61"/><path d="M137.261 179a1.506 1.506 0 0 1-1.338-.953 1.5 1.5 0 0 1 .338-1.607 3.057 3.057 0 0 0 .69-2.08 6.447 6.447 0 0 0-1.4-3.51c-1.73-2.5-3.53-3.88-5.38-4.11a4.566 4.566 0 0 0-4 1.69 1.498 1.498 0 0 1-2.105.265 1.5 1.5 0 0 1-.265-2.105 7.574 7.574 0 0 1 6.76-2.83c2.73.34 5.25 2.15 7.48 5.39a9.09 9.09 0 0 1 1.93 5.31 5.832 5.832 0 0 1-1.58 4.1 1.452 1.452 0 0 1-1.13.44Z" fill="#136D09"/><path d="M138.391 161.39c-1.655.177-3.283.55-4.85 1.11-1.58.56-3.32 1.7-3.22 3.37a2.917 2.917 0 0 0 2.2 2.4 8.464 8.464 0 0 0 3.44.06l9.9-1.15" fill="#D2FD61"/><path d="M134.12 170a6.87 6.87 0 0 1-2-.27 4.397 4.397 0 0 1-3.27-3.74c-.13-2.06 1.45-3.88 4.21-4.87 1.681-.6 3.426-.999 5.2-1.19a1.509 1.509 0 0 1 .32 3 19.409 19.409 0 0 0-4.51 1c-1.1.39-2.27 1.14-2.22 1.85 0 .41.52.88 1.13 1.06a7.297 7.297 0 0 0 2.84 0l9.9-1.15a1.469 1.469 0 0 1 1.109.31 1.485 1.485 0 0 1 .551 1.01 1.485 1.485 0 0 1-.754 1.481c-.172.096-.36.157-.556.179l-9.91 1.15c-.676.1-1.357.16-2.04.18Z" fill="#136D09"/><path d="M110.09 147.4a1.499 1.499 0 0 1-1.14-.53l-12.22-14.2a1.512 1.512 0 1 1 2.27-2l12.23 14.21a1.493 1.493 0 0 1 .202 1.651 1.494 1.494 0 0 1-.362.459 1.459 1.459 0 0 1-.98.41ZM102.89 159.45c-.099.01-.2.01-.3 0l-27-5.42a1.508 1.508 0 0 1-.985-.629 1.495 1.495 0 0 1-.004-1.695 1.502 1.502 0 0 1 1.58-.616l26.999 5.42a1.504 1.504 0 0 1 1.355 1.645 1.505 1.505 0 0 1-1.645 1.355v-.06ZM105.001 152.34a1.543 1.543 0 0 1-.77-.21l-27.77-16.61A1.5 1.5 0 1 1 78 133l27.81 16.6a1.5 1.5 0 0 1-.77 2.79l-.04-.05Z" fill="#F8D137"/><path d="M253.67 221.24H46.33a1.501 1.501 0 0 1 0-3h207.34a1.503 1.503 0 0 1 1.5 1.5 1.503 1.503 0 0 1-1.5 1.5Z" fill="#CFD8DC"/></svg>