<svg width="135" height="135" viewBox="0 0 135 135" fill="none" xmlns="http://www.w3.org/2000/svg">
<rect width="135" height="135" fill="white"/>
<path d="M62.5093 31.0036C62.501 30.2782 62.6801 29.5629 63.0293 28.9267C63.0502 28.8814 63.0855 28.8441 63.1296 28.8207C63.1737 28.7972 63.2243 28.7889 63.2737 28.7969C63.8543 28.9581 64.4547 29.0367 65.0573 29.0305C65.2143 29.0313 65.3698 29.0006 65.5147 28.9403C65.6596 28.88 65.791 28.7914 65.901 28.6796C66.011 28.5678 66.0975 28.4351 66.1553 28.2894C66.2132 28.1436 66.2412 27.9878 66.2377 27.8311C66.2372 27.6693 66.2038 27.5093 66.1395 27.3608C66.0752 27.2123 65.9814 27.0784 65.8637 26.9672C65.7461 26.8561 65.607 26.7699 65.4549 26.714C65.3029 26.6581 65.1411 26.6336 64.9793 26.6421C64.0101 26.593 63.0979 26.1694 62.4357 25.4611C61.7735 24.7527 61.413 23.8149 61.4306 22.8461C61.4482 21.8772 61.8423 20.9531 62.5298 20.2691C63.2172 19.5851 64.1441 19.1948 65.1145 19.1807C65.9114 19.1673 66.6934 19.3974 67.3557 19.8401C67.6856 20.141 68.1063 20.3237 68.5517 20.3594C68.7552 20.3596 68.9544 20.3003 69.1245 20.1886C69.2946 20.0769 69.4281 19.9178 69.5085 19.7311C69.8829 18.9834 71.3857 16.9221 74.6721 16.9221C77.5685 16.9221 80.1997 19.6376 80.1997 22.5713C80.2107 23.8571 79.7896 25.1094 79.0037 26.128C78.8324 26.361 78.7428 26.6439 78.7489 26.9328C78.7475 27.0996 78.7794 27.265 78.8427 27.4193C78.9059 27.5736 78.9993 27.7138 79.1174 27.8318C79.2355 27.9497 79.3759 28.043 79.5305 28.1061C79.6851 28.1693 79.8507 28.2011 80.0177 28.1998C81.0265 28.1998 81.6921 26.9692 82.1289 26.1851C82.1425 26.1637 82.1613 26.146 82.1836 26.1338C82.2059 26.1215 82.2309 26.1151 82.2563 26.1151C82.2817 26.1151 82.3067 26.1215 82.329 26.1338C82.3513 26.146 82.3701 26.1637 82.3837 26.1851C82.8517 26.9085 83.0941 27.7541 83.0805 28.6151C83.0418 29.5928 82.6394 30.521 81.9518 31.2181C81.2642 31.9152 80.3409 32.3312 79.3625 32.3848C79.199 32.381 79.0365 32.4109 78.8851 32.4726C78.7337 32.5343 78.5966 32.6265 78.4825 32.7434C78.3683 32.8603 78.2795 32.9995 78.2216 33.1522C78.1636 33.3048 78.1378 33.4678 78.1457 33.6309C78.1117 34.6556 77.6766 35.6261 76.9337 36.3339C76.1909 37.0417 75.1996 37.4303 74.1729 37.4161C71.5001 37.4161 70.0129 34.7888 70.3145 32.6288C70.3407 32.4586 70.3289 32.2847 70.2799 32.1196C70.2309 31.9545 70.146 31.8023 70.0312 31.6738C69.9164 31.5453 69.7746 31.4437 69.6159 31.3763C69.4573 31.3089 69.2856 31.2774 69.1133 31.284C68.8686 31.275 68.6265 31.3375 68.4168 31.4639C68.2072 31.5902 68.039 31.7749 67.9329 31.9953C67.6181 32.8692 67.5095 33.8039 67.6157 34.7265C67.6417 34.929 67.5429 35.0432 66.7369 35.0432C66.1934 35.0563 65.6526 34.9621 65.1456 34.766C64.6387 34.5698 64.1755 34.2757 63.7827 33.9003C63.3899 33.525 63.0752 33.0759 62.8567 32.5788C62.6381 32.0817 62.5201 31.5464 62.5093 31.0036ZM74.7917 14.0196C73.5008 14.0157 72.2278 14.3212 71.0796 14.9103C69.9314 15.4993 68.9415 16.3548 68.1929 17.405C68.1586 17.4501 68.1088 17.481 68.0531 17.4915C67.9974 17.5021 67.9397 17.4916 67.8913 17.4621C66.9091 16.8284 65.7639 16.4929 64.5945 16.4963C62.9795 16.5138 61.4356 17.1623 60.2935 18.3026C59.1514 19.443 58.5021 20.9846 58.4845 22.5973C58.479 23.5303 58.6761 24.4534 59.0621 25.3032C59.4481 26.1529 60.0139 26.909 60.7205 27.5196C60.7641 27.5527 60.7937 27.601 60.8033 27.6548C60.8129 27.7087 60.8019 27.7642 60.7725 27.8103C60.1385 28.8998 59.7731 30.1243 59.7065 31.3826C59.7031 32.2242 59.8661 33.0581 60.1863 33.8366C60.5064 34.6151 60.9774 35.3228 61.5721 35.9191C62.1669 36.5154 62.8737 36.9885 63.652 37.3113C64.4304 37.6342 65.2649 37.8003 66.1077 37.8003C66.8707 37.8062 67.6307 37.703 68.3645 37.494C68.4125 37.4814 68.4633 37.4847 68.5093 37.5034C68.5552 37.5221 68.5939 37.5553 68.6193 37.5978C69.2236 38.5338 70.0569 39.3006 71.0405 39.8257C72.024 40.3508 73.1253 40.6169 74.2405 40.599C77.4333 40.599 80.5585 38.1015 80.8445 34.6953C80.8476 34.6466 80.8673 34.6004 80.9004 34.5645C80.9336 34.5285 80.9781 34.5051 81.0265 34.498C82.2329 34.2231 83.3322 33.6014 84.1887 32.7096C85.0451 31.8178 85.6212 30.6951 85.8458 29.48C86.0703 28.265 85.9335 27.0109 85.4523 25.8726C84.971 24.7343 84.1663 23.7617 83.1377 23.075C83.1051 23.0526 83.0789 23.0222 83.0616 22.9867C83.0442 22.9512 83.0364 22.9119 83.0389 22.8725C83.3405 19.0042 80.3557 14.0196 74.7917 14.0196Z" fill="#13C1AC"/>
<path d="M64.3581 62.8739C64.1513 62.8739 63.9529 62.7919 63.8066 62.6458C63.6603 62.4998 63.5781 62.3017 63.5781 62.0951V47.3853C63.5781 47.1787 63.6603 46.9806 63.8066 46.8346C63.9529 46.6885 64.1513 46.6064 64.3581 46.6064C64.565 46.6064 64.7634 46.6885 64.9097 46.8346C65.0559 46.9806 65.1381 47.1787 65.1381 47.3853V62.0951C65.1381 62.3017 65.0559 62.4998 64.9097 62.6458C64.7634 62.7919 64.565 62.8739 64.3581 62.8739Z" fill="#CFD8DC"/>
<path d="M71.7566 68.1595C71.5497 68.1595 71.3513 68.0774 71.205 67.9314C71.0587 67.7853 70.9766 67.5872 70.9766 67.3806V49.2076C70.9766 49.001 71.0587 48.8029 71.205 48.6568C71.3513 48.5108 71.5497 48.4287 71.7566 48.4287C71.9634 48.4287 72.1618 48.5108 72.3081 48.6568C72.4544 48.8029 72.5366 49.001 72.5366 49.2076V67.3806C72.5366 67.5872 72.4544 67.7853 72.3081 67.9314C72.1618 68.0774 71.9634 68.1595 71.7566 68.1595Z" fill="#CFD8DC"/>
<path d="M80.0261 54.5658C79.8192 54.5658 79.6208 54.4838 79.4745 54.3377C79.3283 54.1917 79.2461 53.9936 79.2461 53.787V46.4087C79.2461 46.2022 79.3283 46.0041 79.4745 45.858C79.6208 45.7119 79.8192 45.6299 80.0261 45.6299C80.233 45.6299 80.4314 45.7119 80.5776 45.858C80.7239 46.0041 80.8061 46.2022 80.8061 46.4087V53.787C80.8061 53.9936 80.7239 54.1917 80.5776 54.3377C80.4314 54.4838 80.233 54.5658 80.0261 54.5658Z" fill="#CFD8DC"/>
<path d="M106.351 84.2973L101.437 73.3934C101.374 73.2573 101.274 73.1419 101.147 73.0609C101.021 72.9799 100.874 72.9368 100.724 72.9365H59.5923C59.4623 72.9366 59.3344 72.969 59.2202 73.031C59.106 73.0929 59.0091 73.1824 58.9383 73.2912C58.8675 73.4001 58.8251 73.5249 58.8149 73.6543C58.8047 73.7836 58.8271 73.9135 58.8799 74.0321L63.8355 85.0813C64.236 85.9654 64.8829 86.7156 65.699 87.2422C66.5151 87.7689 67.4658 88.0498 68.4375 88.0513H103.896C104.342 88.0526 104.781 87.9422 105.173 87.7301C105.565 87.518 105.897 87.2111 106.139 86.8375C106.381 86.4639 106.526 86.0355 106.559 85.5917C106.592 85.1479 106.514 84.7028 106.33 84.2973H106.351Z" fill="#F49709"/>
<path opacity="0.6" d="M106.351 84.2973L101.437 73.3934C101.374 73.2573 101.274 73.1419 101.147 73.0609C101.021 72.9799 100.874 72.9368 100.724 72.9365H59.5923C59.4623 72.9366 59.3344 72.969 59.2202 73.031C59.106 73.0929 59.0091 73.1824 58.9383 73.2912C58.8675 73.4001 58.8251 73.5249 58.8149 73.6543C58.8047 73.7836 58.8271 73.9135 58.8799 74.0321L63.8355 85.0813C64.236 85.9654 64.8829 86.7156 65.699 87.2422C66.5151 87.7689 67.4658 88.0498 68.4375 88.0513H103.896C104.342 88.0526 104.781 87.9422 105.173 87.7301C105.565 87.518 105.897 87.2111 106.139 86.8375C106.381 86.4639 106.526 86.0355 106.559 85.5917C106.592 85.1479 106.514 84.7028 106.33 84.2973H106.351Z" fill="#803700"/>
<path d="M60.2495 73.274C60.1777 73.1659 60.0804 73.0772 59.9661 73.0156C59.8518 72.954 59.7241 72.9215 59.5943 72.9209H35.2999C35.1498 72.9211 35.0029 72.9643 34.8767 73.0453C34.7504 73.1262 34.6501 73.2417 34.5875 73.3778L29.6735 84.2817C29.4859 84.6887 29.4044 85.1364 29.4365 85.5832C29.4686 86.0301 29.6133 86.4616 29.8571 86.8377C30.101 87.2137 30.436 87.5222 30.8312 87.7344C31.2264 87.9465 31.6688 88.0556 32.1175 88.0513H50.7439C51.715 88.05 52.6651 87.7692 53.4804 87.2424C54.2957 86.7157 54.9416 85.9653 55.3407 85.0813L60.3223 74.0165C60.3715 73.8961 60.3906 73.7656 60.3779 73.6362C60.3652 73.5068 60.3211 73.3825 60.2495 73.274Z" fill="#F49709"/>
<path opacity="0.3" d="M60.2495 73.274C60.1777 73.1659 60.0804 73.0772 59.9661 73.0156C59.8518 72.954 59.7241 72.9215 59.5943 72.9209H35.2999C35.1498 72.9211 35.0029 72.9643 34.8767 73.0453C34.7504 73.1262 34.6501 73.2417 34.5875 73.3778L29.6735 84.2817C29.4859 84.6887 29.4044 85.1364 29.4365 85.5832C29.4686 86.0301 29.6133 86.4616 29.8571 86.8377C30.101 87.2137 30.436 87.5222 30.8312 87.7344C31.2264 87.9465 31.6688 88.0556 32.1175 88.0513H50.7439C51.715 88.05 52.6651 87.7692 53.4804 87.2424C54.2957 86.7157 54.9416 85.9653 55.3407 85.0813L60.3223 74.0165C60.3715 73.8961 60.3906 73.7656 60.3779 73.6362C60.3652 73.5068 60.3211 73.3825 60.2495 73.274Z" fill="#803700"/>
<path d="M106.161 61.0828C105.92 60.7085 105.588 60.401 105.196 60.1887C104.804 59.9763 104.365 59.8659 103.92 59.8678H85.2985C84.3271 59.8678 83.3764 60.1481 82.5609 60.675C81.7453 61.2019 81.0997 61.953 80.7017 62.8378L76.4325 72.319L72.1581 62.8274C71.7582 61.943 71.1114 61.1924 70.2952 60.6657C69.479 60.1389 68.528 59.8583 67.5561 59.8574H32.1181C31.6728 59.857 31.2346 59.9681 30.8434 60.1805C30.4522 60.393 30.1207 60.7 29.8791 61.0735C29.6375 61.4469 29.4936 61.875 29.4605 62.3184C29.4274 62.7618 29.5062 63.2064 29.6897 63.6115L34.5361 74.3751V117.258C34.5375 118.265 34.9384 119.229 35.651 119.941C36.3635 120.652 37.3296 121.053 38.3373 121.054H97.7213C98.729 121.053 99.6951 120.652 100.408 119.941C101.12 119.229 101.521 118.265 101.523 117.258V74.3855L106.369 63.6218C106.549 63.215 106.625 62.7694 106.589 62.3259C106.552 61.8824 106.405 61.455 106.161 61.0828Z" fill="#F49709"/>
<path opacity="0.3" d="M106.161 61.0832C105.92 60.7089 105.588 60.4014 105.196 60.189C104.804 59.9767 104.365 59.8663 103.92 59.8682H85.2983C84.327 59.8681 83.3763 60.1484 82.5607 60.6754C81.7452 61.2023 81.0995 61.9534 80.7015 62.8382L76.1359 72.9788C75.9927 73.0375 75.8702 73.1376 75.7841 73.2661C75.6979 73.3946 75.6521 73.5458 75.6523 73.7005V120.286C75.6523 120.492 75.7345 120.691 75.8808 120.837C76.0271 120.983 76.2255 121.065 76.4323 121.065H97.7055C98.7133 121.063 99.6793 120.663 100.392 119.952C101.104 119.24 101.505 118.275 101.507 117.269V74.3859L106.353 63.6222C106.536 63.2166 106.614 62.7718 106.58 62.3283C106.547 61.8848 106.403 61.4567 106.161 61.0832Z" fill="#803700"/>
<path d="M76.4323 121.064C76.2255 121.064 76.0271 120.982 75.8808 120.836C75.7345 120.69 75.6523 120.492 75.6523 120.285V73.6997C75.6523 73.4932 75.7345 73.2951 75.8808 73.149C76.0271 73.003 76.2255 72.9209 76.4323 72.9209C76.6392 72.9209 76.8376 73.003 76.9839 73.149C77.1302 73.2951 77.2123 73.4932 77.2123 73.6997V120.285C77.2123 120.492 77.1302 120.69 76.9839 120.836C76.8376 120.982 76.6392 121.064 76.4323 121.064Z" fill="#803700"/>
<path d="M100.726 74.4786H35.2995C35.0927 74.4786 34.8943 74.3965 34.748 74.2505C34.6017 74.1044 34.5195 73.9063 34.5195 73.6997C34.5195 73.4932 34.6017 73.2951 34.748 73.149C34.8943 73.003 35.0927 72.9209 35.2995 72.9209H100.726C100.933 72.9209 101.131 73.003 101.277 73.149C101.424 73.2951 101.506 73.4932 101.506 73.6997C101.506 73.9063 101.424 74.1044 101.277 74.2505C101.131 74.3965 100.933 74.4786 100.726 74.4786Z" fill="#803700"/>
<path d="M60.1289 92.4232L50.0877 92.174C49.8816 92.1703 49.6822 92.2466 49.5313 92.3868C49.453 92.4571 49.39 92.5427 49.3462 92.6382C49.3024 92.7338 49.2787 92.8373 49.2765 92.9424L49.2089 95.6372C49.1895 96.3976 49.3204 97.1543 49.594 97.8641C49.8677 98.5739 50.2787 99.2229 50.8036 99.7741C51.3285 100.325 51.9571 100.768 52.6533 101.076C53.3495 101.385 54.0998 101.553 54.8613 101.572H55.0121C56.5254 101.571 57.9785 100.98 59.0616 99.9247C60.1447 98.8694 60.7721 97.4334 60.8101 95.9228L60.8777 93.228C60.8847 93.0223 60.8099 92.8221 60.6696 92.6713C60.5293 92.5205 60.3349 92.4313 60.1289 92.4232ZM54.9289 100.004C53.9294 99.9821 52.9705 99.6046 52.2249 98.9395C52.6436 98.1758 53.2639 97.5411 54.0184 97.1045C54.7728 96.6679 55.6327 96.4459 56.5045 96.4628C57.3965 96.4824 58.2644 96.7563 59.0057 97.252C58.6941 98.0779 58.1337 98.787 57.4017 99.2817C56.6697 99.7764 55.8022 100.032 54.9185 100.014L54.9289 100.004Z" fill="#803700"/>
<path d="M67.6072 93.4149C67.5048 93.4122 67.4039 93.3894 67.3103 93.3478C67.2167 93.3061 67.1322 93.2465 67.0617 93.1722C66.9912 93.098 66.936 93.0105 66.8993 92.915C66.8627 92.8194 66.8452 92.7176 66.848 92.6153C66.855 92.3008 66.7369 91.9964 66.5195 91.7687C66.3022 91.5409 66.0033 91.4085 65.6884 91.4003H65.6572C65.3467 91.4002 65.0485 91.5212 64.826 91.7375C64.6036 91.9538 64.4745 92.2483 64.4664 92.5582C64.457 92.7634 64.3683 92.957 64.219 93.0984C64.0697 93.2397 63.8714 93.3178 63.6656 93.3163C63.4596 93.3108 63.2642 93.2242 63.1219 93.0754C62.9797 92.9266 62.9022 92.7276 62.9064 92.5219C62.9243 91.7934 63.2313 91.1019 63.7599 90.5994C64.2885 90.0969 64.9953 89.8247 65.7248 89.8426C66.4544 89.8605 67.1469 90.1671 67.6501 90.6949C68.1533 91.2226 68.4259 91.9284 68.408 92.6569C68.4053 92.7591 68.3825 92.8599 68.3408 92.9534C68.299 93.0468 68.2393 93.1312 68.1649 93.2016C68.0906 93.272 68.003 93.3271 67.9073 93.3637C67.8116 93.4003 67.7096 93.4177 67.6072 93.4149Z" fill="#803700"/>
<path d="M46.4471 92.8904C46.3446 92.8877 46.2437 92.8649 46.1501 92.8232C46.0565 92.7816 45.972 92.7219 45.9015 92.6477C45.831 92.5734 45.7759 92.486 45.7392 92.3905C45.7025 92.2949 45.6851 92.1931 45.6879 92.0908C45.695 91.7765 45.5772 91.4722 45.3603 91.2444C45.2538 91.1299 45.1252 91.0381 44.9822 90.9748C44.8392 90.9114 44.6847 90.8777 44.5283 90.8758C44.2128 90.8688 43.9073 90.9866 43.6785 91.2034C43.4496 91.4203 43.3158 91.7187 43.3063 92.0337C43.2982 92.2384 43.2106 92.432 43.0621 92.5735C42.9137 92.715 42.7159 92.7933 42.5107 92.7917C42.3033 92.7863 42.1065 92.6992 41.9633 92.5493C41.8201 92.3995 41.7421 92.1992 41.7463 91.9921C41.7693 91.2686 42.0749 90.5827 42.5976 90.0811C43.1204 89.5795 43.8189 89.3019 44.5439 89.3077C44.9051 89.3165 45.2611 89.3962 45.5915 89.5424C45.9219 89.6886 46.2202 89.8983 46.4694 90.1597C46.7186 90.421 46.9138 90.7289 47.0438 91.0655C47.1738 91.4022 47.236 91.7612 47.2271 92.1219C47.2243 92.3267 47.1409 92.5221 46.995 92.666C46.849 92.8098 46.6521 92.8904 46.4471 92.8904Z" fill="#803700"/>
<path d="M128.616 121.76H7.40891C7.20204 121.76 7.00364 121.678 6.85736 121.532C6.71108 121.386 6.62891 121.188 6.62891 120.981C6.62891 120.774 6.71108 120.576 6.85736 120.43C7.00364 120.284 7.20204 120.202 7.40891 120.202H128.616C128.823 120.202 129.021 120.284 129.167 120.43C129.314 120.576 129.396 120.774 129.396 120.981C129.396 121.188 129.314 121.386 129.167 121.532C129.021 121.678 128.823 121.76 128.616 121.76Z" fill="#CFD8DC"/>
<path d="M42.5194 40.7859C42.4099 40.7871 42.3016 40.764 42.2022 40.7184C40.5122 39.9655 38.1566 38.7037 37.2258 36.4139C36.7341 35.1515 36.7341 33.751 37.2258 32.4885C36.8078 32.0308 36.4901 31.4909 36.2931 30.9035C36.0961 30.316 36.0241 29.694 36.0818 29.0772C36.1694 28.405 36.3442 27.7469 36.6018 27.1197C36.7058 26.8445 36.8098 26.5641 36.8982 26.2785C37.0178 25.8839 37.2414 24.9026 36.7786 24.3366C36.6496 24.1734 36.5909 23.9658 36.6153 23.7594C36.6396 23.5529 36.7451 23.3646 36.9086 23.2359C37.072 23.1071 37.2799 23.0484 37.4867 23.0728C37.6934 23.0971 37.882 23.2025 38.011 23.3657C38.6766 24.186 38.8222 25.3855 38.4114 26.7407C38.3178 27.0574 38.1982 27.3741 38.0838 27.6857C37.8695 28.1844 37.7176 28.7075 37.6314 29.2434C37.5757 29.8638 37.7196 30.4859 38.0422 31.0191C38.2466 30.7597 38.4765 30.5214 38.7286 30.3078C39.1362 29.927 39.6299 29.6502 40.1677 29.5011C40.7055 29.3519 41.2715 29.3347 41.8174 29.451C42.1618 29.552 42.48 29.727 42.7495 29.9638C43.019 30.2007 43.2333 30.4935 43.3774 30.8218C43.5017 31.0943 43.563 31.3912 43.5567 31.6905C43.5504 31.9898 43.4767 32.2839 43.341 32.5509C43.008 33.1231 42.4623 33.541 41.8226 33.7139C40.7383 34.0613 39.5618 33.9795 38.5362 33.4855C38.3321 34.2607 38.3795 35.0805 38.6714 35.8272C39.389 37.5978 41.391 38.6518 42.8314 39.2957C42.9945 39.3683 43.1278 39.4946 43.2088 39.6536C43.2899 39.8125 43.3138 39.9945 43.2767 40.1689C43.2396 40.3434 43.1436 40.4999 43.0048 40.6121C42.866 40.7244 42.6928 40.7858 42.5142 40.7859H42.5194ZM39.1966 32.0628C39.864 32.3871 40.6304 32.4447 41.339 32.2237C41.5907 32.1689 41.813 32.0227 41.963 31.8135C41.9893 31.7529 42.0029 31.6875 42.0029 31.6214C42.0029 31.5553 41.9893 31.49 41.963 31.4293C41.915 31.3163 41.844 31.2146 41.7545 31.1305C41.665 31.0465 41.5589 30.982 41.443 30.9412C41.1435 30.8921 40.8366 30.9135 40.5468 31.0036C40.257 31.0937 39.9923 31.2502 39.7738 31.4605C39.5584 31.6379 39.3646 31.8401 39.1966 32.0628Z" fill="#A3FBFF"/>
<path d="M110.303 53.4814C110.132 53.4831 109.964 53.4282 109.827 53.3253C109.69 53.2224 109.591 53.0773 109.544 52.9123C109.498 52.7473 109.508 52.5717 109.572 52.4127C109.636 52.2537 109.75 52.1201 109.898 52.0327C110.752 51.5298 111.701 51.2085 112.685 51.0887C113.669 50.969 114.668 51.0535 115.618 51.337L115.753 51.3785C115.894 51.4314 116.04 51.468 116.19 51.4875C116.71 51.5291 117.23 50.7398 117.495 50.0596L117.562 49.8883C117.942 48.9018 118.415 47.6712 119.642 47.2039C120.261 47.0078 120.918 46.9668 121.556 47.0845C122.204 47.1341 122.845 47.2578 123.464 47.4531C123.688 47.5362 123.912 47.6296 124.13 47.7283C124.485 47.9328 124.885 48.0486 125.295 48.0658C125.908 47.9983 126.397 47.2195 126.798 46.4614C126.843 46.3663 126.907 46.2813 126.985 46.2116C127.064 46.1418 127.156 46.0887 127.256 46.0555C127.356 46.0223 127.462 46.0096 127.567 46.0183C127.672 46.0269 127.774 46.0567 127.867 46.1058C127.96 46.1549 128.042 46.2224 128.109 46.3041C128.175 46.3858 128.224 46.4801 128.253 46.5812C128.282 46.6824 128.29 46.7883 128.277 46.8927C128.263 46.997 128.229 47.0976 128.176 47.1883C127.791 47.9256 126.985 49.4521 125.456 49.6131C124.773 49.6374 124.096 49.4778 123.496 49.151C123.314 49.0731 123.126 48.99 122.944 48.9225C122.436 48.7709 121.913 48.6734 121.384 48.6318C120.998 48.5451 120.596 48.5451 120.209 48.6318C119.642 48.8498 119.336 49.6702 119.034 50.4231L118.966 50.5996C118.337 52.2093 117.302 53.1023 116.112 53.0193C115.836 52.994 115.565 52.9329 115.306 52.8375L115.186 52.8012C114.449 52.5787 113.674 52.5101 112.909 52.5994C112.144 52.6887 111.406 52.9341 110.74 53.3204C110.616 53.4197 110.462 53.4762 110.303 53.4814Z" fill="#85FFD3"/>
<path d="M101.999 47.9508C101.879 47.9508 101.765 47.9508 101.645 47.9508C101.543 47.9419 101.443 47.913 101.352 47.8657C101.26 47.8184 101.179 47.7535 101.113 47.675C101.047 47.5964 100.997 47.5055 100.966 47.4076C100.935 47.3098 100.924 47.2067 100.933 47.1045C100.941 47.0022 100.97 46.9026 101.018 46.8115C101.065 46.7204 101.13 46.6396 101.209 46.5735C101.288 46.5074 101.379 46.4575 101.477 46.4266C101.575 46.3956 101.678 46.3842 101.78 46.3931C102.673 46.3759 103.55 46.1539 104.344 45.7441C105.571 45.2248 106.944 44.7056 108.389 45.2248C108.571 45.3075 108.714 45.4563 108.788 45.6408C108.863 45.8253 108.865 46.0314 108.792 46.2168C108.72 46.4023 108.579 46.5529 108.398 46.6378C108.218 46.7228 108.012 46.7355 107.823 46.6735C106.975 46.3464 106.029 46.7306 104.931 47.1927C104.013 47.6335 103.016 47.891 101.999 47.9508Z" fill="#CFD8DC"/>
<path d="M90.5627 31.907C90.4354 31.9068 90.3102 31.8747 90.1987 31.8136C90.018 31.7185 89.8823 31.5561 89.821 31.3616C89.7596 31.1672 89.7776 30.9564 89.8711 30.7751C92.6739 25.4686 96.2775 21.673 100.021 20.0738C100.117 20.0318 100.219 20.0091 100.323 20.007C100.427 20.0049 100.531 20.0235 100.627 20.0617C100.724 20.0998 100.812 20.1568 100.887 20.2293C100.961 20.3018 101.021 20.3884 101.061 20.484C101.105 20.5788 101.129 20.6814 101.132 20.7856C101.134 20.8899 101.116 20.9936 101.078 21.0906C101.039 21.1877 100.982 21.2759 100.908 21.3501C100.835 21.4243 100.747 21.4829 100.651 21.5224C97.2811 22.9607 93.8907 26.6005 91.2907 31.5176C91.2189 31.6449 91.1123 31.7491 90.9834 31.8181C90.8545 31.8871 90.7085 31.9179 90.5627 31.907Z" fill="#FFBAB5"/>
<path d="M53.4425 25.0898C53.2509 25.0912 53.0655 25.022 52.9216 24.8956C52.7777 24.7692 52.6855 24.5944 52.6625 24.4044L52.3557 21.5227C52.3451 21.4204 52.3548 21.317 52.3842 21.2185C52.4137 21.1199 52.4622 21.0282 52.5272 20.9484C52.5921 20.8686 52.6722 20.8023 52.7628 20.7534C52.8533 20.7045 52.9527 20.6739 53.0551 20.6633C53.1575 20.6528 53.2611 20.6624 53.3597 20.6918C53.4584 20.7212 53.5504 20.7697 53.6303 20.8345C53.7102 20.8994 53.7765 20.9793 53.8255 21.0698C53.8745 21.1602 53.9051 21.2594 53.9157 21.3617L54.2173 24.2434C54.2392 24.4486 54.1786 24.654 54.049 24.8146C53.9193 24.9752 53.7311 25.0779 53.5257 25.1002L53.4425 25.0898Z" fill="#E9FFB4"/>
<path d="M29.412 50.9936C29.279 50.9943 29.1481 50.9603 29.0324 50.895C27.7532 50.1784 26.1412 49.4411 25.0596 50.1109L24.8672 50.2407C24.7049 50.3664 24.5307 50.476 24.3472 50.5679C23.9015 50.737 23.4201 50.7904 22.9481 50.7232C22.4761 50.656 22.0289 50.4704 21.6484 50.1836C21.3676 49.9967 21.1284 49.7942 20.8788 49.6021C20.617 49.3745 20.335 49.1712 20.0364 48.9946C19.5912 48.7648 19.0903 48.6648 18.5909 48.7062C18.0915 48.7475 17.6139 48.9284 17.2128 49.2282C17.1331 49.2972 17.0404 49.3492 16.94 49.3814C16.8397 49.4135 16.7339 49.425 16.629 49.4151C16.5241 49.4053 16.4223 49.3744 16.3297 49.3242C16.2371 49.274 16.1557 49.2056 16.0903 49.1231C16.0249 49.0406 15.9769 48.9457 15.9492 48.8442C15.9216 48.7427 15.9148 48.6366 15.9293 48.5324C15.9438 48.4282 15.9793 48.328 16.0337 48.2379C16.088 48.1478 16.1601 48.0696 16.2456 48.0081C16.8875 47.5173 17.6572 47.2211 18.463 47.1548C19.2688 47.0886 20.0766 47.255 20.7904 47.6342C21.1691 47.8524 21.526 48.1062 21.8564 48.3923C22.08 48.5688 22.288 48.7402 22.5012 48.8804C22.6684 49.0122 22.8632 49.1049 23.071 49.1516C23.2789 49.1983 23.4947 49.1979 23.7024 49.1504C23.8056 49.0983 23.9032 49.0356 23.9936 48.9634L24.264 48.7869C26.0424 47.6861 28.1692 48.6104 29.8228 49.5346C29.9739 49.6188 30.0928 49.7508 30.1606 49.9099C30.2283 50.0689 30.2412 50.246 30.1971 50.4131C30.153 50.5803 30.0545 50.7281 29.9171 50.8332C29.7796 50.9383 29.6111 50.9947 29.438 50.9936H29.412Z" fill="#F8D137"/>
<path d="M50.5822 52.3645C50.4623 52.3651 50.3439 52.3377 50.2365 52.2845C50.1291 52.2313 50.0356 52.1538 49.9634 52.0581L48.0758 49.6022C47.9497 49.4383 47.8938 49.2311 47.9206 49.0261C47.9475 48.8211 48.0547 48.6352 48.2188 48.5092C48.383 48.3832 48.5905 48.3274 48.7958 48.3542C49.001 48.381 49.1873 48.4881 49.3134 48.652L51.201 51.1131C51.3263 51.2771 51.3813 51.484 51.354 51.6884C51.3267 51.8928 51.2193 52.078 51.0554 52.2035C50.9202 52.3086 50.7536 52.3653 50.5822 52.3645Z" fill="#85FFD3"/>
<path d="M86.4661 52.1514C86.3409 52.1523 86.2176 52.122 86.1073 52.0631C85.9267 51.9679 85.7907 51.8059 85.7285 51.6117C85.6663 51.4176 85.6828 51.2068 85.7745 51.0246C86.6138 49.4127 87.7176 47.9525 89.0401 46.7046C89.114 46.6319 89.2017 46.5746 89.2981 46.5361C89.3945 46.4976 89.4977 46.4788 89.6015 46.4806C89.7053 46.4824 89.8076 46.5049 89.9026 46.5468C89.9976 46.5887 90.0832 46.649 90.1545 46.7244C90.2258 46.7997 90.2814 46.8885 90.3178 46.9856C90.3543 47.0826 90.3711 47.186 90.367 47.2896C90.363 47.3931 90.3383 47.4949 90.2944 47.5888C90.2505 47.6827 90.1882 47.767 90.1113 47.8366C88.9172 48.9679 87.9191 50.2891 87.1577 51.7464C87.0899 51.8701 86.9898 51.9731 86.868 52.0444C86.7462 52.1157 86.6072 52.1527 86.4661 52.1514Z" fill="#F8D137"/>
<path d="M56.2839 46.5546C56.0797 46.5547 55.8836 46.4748 55.7378 46.3321C55.592 46.1893 55.508 45.9952 55.5039 45.7914L55.5195 45.1735C55.5154 44.9669 55.5936 44.7672 55.7369 44.6182C55.8803 44.4692 56.077 44.3832 56.2839 44.3791C56.4908 44.3749 56.6908 44.453 56.84 44.5962C56.9892 44.7393 57.0754 44.9358 57.0795 45.1423V45.7602C57.0823 45.8627 57.0646 45.9647 57.0276 46.0603C56.9905 46.1559 56.9348 46.2431 56.8637 46.3171C56.7926 46.391 56.7075 46.45 56.6133 46.4908C56.5191 46.5316 56.4177 46.5533 56.3151 46.5546H56.2839Z" fill="#FFCEE6"/>
<path d="M87.5373 41.2066C87.3844 41.2065 87.2348 41.1615 87.1073 41.0772C86.9798 40.9929 86.8799 40.8731 86.82 40.7325C86.7602 40.592 86.743 40.437 86.7707 40.2868C86.7984 40.1366 86.8697 39.9978 86.9757 39.8878L87.1785 39.6801C87.2484 39.603 87.3331 39.5406 87.4275 39.4967C87.5219 39.4528 87.6242 39.4282 87.7282 39.4244C87.8323 39.4205 87.9361 39.4376 88.0335 39.4745C88.1309 39.5113 88.2199 39.5673 88.2952 39.6391C88.3706 39.7109 88.4308 39.797 88.4723 39.8924C88.5138 39.9878 88.5357 40.0905 88.5368 40.1945C88.5379 40.2985 88.5181 40.4017 88.4786 40.4979C88.4392 40.5942 88.3808 40.6815 88.3069 40.7549L88.0989 40.9678C88.0259 41.0428 87.9386 41.1025 87.8422 41.1435C87.7457 41.1845 87.6421 41.206 87.5373 41.2066Z" fill="#85FFD3"/>
<path d="M110.834 35.2408C110.681 35.2407 110.532 35.1958 110.404 35.1115C110.277 35.0272 110.177 34.9073 110.117 34.7668C110.057 34.6262 110.04 34.4712 110.068 34.321C110.095 34.1708 110.167 34.032 110.273 33.922L110.678 33.5014C110.823 33.3598 111.018 33.2801 111.221 33.2793C111.423 33.2785 111.619 33.3566 111.765 33.4971C111.911 33.6376 111.996 33.8294 112.003 34.0318C112.01 34.2343 111.938 34.4314 111.801 34.5814L111.396 35.002C111.323 35.077 111.235 35.1367 111.139 35.1777C111.043 35.2187 110.939 35.2402 110.834 35.2408Z" fill="#FFBAB5"/>
<path d="M123.092 40.1471C122.897 40.1427 122.711 40.0648 122.572 39.929C122.426 39.783 122.344 39.585 122.344 39.3786C122.344 39.1722 122.426 38.9743 122.572 38.8282L122.775 38.6154C122.844 38.533 122.929 38.4656 123.026 38.4176C123.122 38.3696 123.227 38.3418 123.335 38.3361C123.442 38.3303 123.55 38.3468 123.651 38.3843C123.751 38.4218 123.844 38.4797 123.921 38.5543C123.999 38.6289 124.06 38.7186 124.101 38.8179C124.143 38.9171 124.163 39.0238 124.162 39.1313C124.16 39.2388 124.136 39.3448 124.092 39.4428C124.047 39.5407 123.983 39.6284 123.903 39.7005L123.7 39.9082C123.622 39.9896 123.527 40.0531 123.422 40.0944C123.317 40.1356 123.205 40.1536 123.092 40.1471Z" fill="#F8D137"/>
<path d="M89.6793 19.2118C89.4848 19.2065 89.2993 19.1287 89.1593 18.9938L88.9513 18.7913C88.8739 18.7212 88.8115 18.6364 88.7676 18.5418C88.7237 18.4473 88.6993 18.3449 88.6958 18.2407C88.6922 18.1365 88.7097 18.0327 88.7471 17.9354C88.7845 17.8381 88.8411 17.7492 88.9135 17.6742C88.9859 17.5991 89.0726 17.5393 89.1686 17.4983C89.2646 17.4573 89.3678 17.436 89.4722 17.4356C89.5766 17.4351 89.68 17.4557 89.7763 17.4959C89.8726 17.5361 89.9599 17.5952 90.0329 17.6697L90.2461 17.8722C90.3921 18.0183 90.4742 18.2162 90.4742 18.4226C90.4742 18.629 90.3921 18.827 90.2461 18.973C90.1735 19.0501 90.0856 19.1112 89.988 19.1523C89.8904 19.1935 89.7852 19.2137 89.6793 19.2118Z" fill="#CFD8DC"/>
<path d="M50.5714 39.8098C50.4218 39.8103 50.2752 39.7678 50.1491 39.6873C50.0231 39.6069 49.9228 39.492 49.8604 39.3563C49.7979 39.2206 49.7758 39.0698 49.7968 38.9219C49.8177 38.774 49.8808 38.6352 49.9785 38.5222C49.9996 38.3574 50.0728 38.2037 50.1875 38.0835C50.3022 37.9632 50.4524 37.8827 50.6161 37.8538C50.7799 37.8248 50.9486 37.8488 51.0977 37.9223C51.2468 37.9959 51.3685 38.1151 51.445 38.2625C51.5156 38.4055 51.5523 38.5627 51.5523 38.7221C51.5523 38.8814 51.5156 39.0387 51.445 39.1816C51.383 39.3287 51.2879 39.4596 51.167 39.564C51.0462 39.6685 50.9028 39.7437 50.7482 39.7839C50.6902 39.7984 50.631 39.8071 50.5714 39.8098Z" fill="#FFBAB5"/>
<path d="M26.3997 40.0432C26.2046 40.0359 26.0192 39.9563 25.8797 39.8199L25.6717 39.6174C25.5987 39.5455 25.5408 39.4598 25.5013 39.3653C25.4618 39.2708 25.4414 39.1694 25.4414 39.0671C25.4414 38.9647 25.4618 38.8633 25.5013 38.7688C25.5408 38.6743 25.5987 38.5886 25.6717 38.5167C25.8186 38.3721 26.0166 38.291 26.2229 38.291C26.4292 38.291 26.6272 38.3721 26.7741 38.5167L26.9821 38.7244C27.055 38.7963 27.113 38.882 27.1525 38.9765C27.192 39.071 27.2124 39.1724 27.2124 39.2747C27.2124 39.3771 27.192 39.4785 27.1525 39.573C27.113 39.6675 27.055 39.7532 26.9821 39.8251C26.9048 39.8989 26.8134 39.9563 26.7133 39.9938C26.6132 40.0313 26.5065 40.0481 26.3997 40.0432Z" fill="#85FFD3"/>
<path d="M40.8728 56.981C40.3367 56.9819 39.8123 56.8246 39.3655 56.5289C38.9186 56.2331 38.5693 55.8121 38.3614 55.3187C38.1534 54.8253 38.0962 54.2815 38.1968 53.7557C38.2974 53.2299 38.5514 52.7456 38.9268 52.3635C39.3023 51.9814 39.7825 51.7186 40.3071 51.6082C40.8316 51.4978 41.3772 51.5446 41.8752 51.7429C42.3731 51.9411 42.8013 52.2819 43.106 52.7224C43.4106 53.1629 43.578 53.6834 43.5872 54.2186C43.5998 54.938 43.3259 55.6329 42.8257 56.1508C42.3256 56.6688 41.64 56.9673 40.9196 56.981H40.8728ZM40.8728 53.1127C40.6433 53.1158 40.4199 53.1869 40.2308 53.3169C40.0418 53.4469 39.8956 53.6301 39.8109 53.8431C39.7262 54.0561 39.7067 54.2895 39.7549 54.5136C39.8031 54.7377 39.9168 54.9425 40.0817 55.102C40.2465 55.2615 40.4551 55.3686 40.6809 55.4096C40.9068 55.4507 41.1397 55.4239 41.3503 55.3326C41.5609 55.2414 41.7396 55.0897 41.8638 54.897C41.988 54.7042 42.0521 54.479 42.048 54.2498C42.0454 54.0964 42.0122 53.945 41.9504 53.8046C41.8886 53.6641 41.7995 53.5372 41.6882 53.4314C41.577 53.3256 41.4457 53.243 41.3022 53.1883C41.1586 53.1335 41.0056 53.1078 40.852 53.1127H40.8728Z" fill="#E9FFB4"/>
<path d="M51.6218 34.6379C50.921 34.6147 50.2562 34.3221 49.7662 33.8213C49.2763 33.3204 48.999 32.6499 48.9923 31.9498C48.9856 31.2496 49.25 30.574 49.7302 30.0638C50.2105 29.5537 50.8695 29.2485 51.5698 29.2119H51.6218C52.3341 29.2132 53.0175 29.4935 53.5251 29.9925C54.0327 30.4916 54.3239 31.1696 54.3362 31.8808C54.344 32.2369 54.281 32.591 54.1506 32.9226C54.0203 33.2542 53.8253 33.5566 53.577 33.8123C53.3291 34.0691 53.033 34.2747 52.7055 34.4172C52.3781 34.5598 52.0257 34.6365 51.6686 34.6431L51.6218 34.6379ZM51.6218 30.7644C51.3283 30.7841 51.0533 30.9143 50.8524 31.1288C50.6515 31.3433 50.5398 31.626 50.5398 31.9197C50.5398 32.2134 50.6515 32.4961 50.8524 32.7106C51.0533 32.9251 51.3283 33.0553 51.6218 33.075C51.7738 33.0723 51.9239 33.0396 52.0632 32.9789C52.2026 32.9181 52.3286 32.8304 52.4339 32.7209C52.5392 32.6114 52.6219 32.4822 52.677 32.3407C52.7322 32.1991 52.7588 32.0482 52.7554 31.8963C52.7488 31.5982 52.6272 31.3141 52.416 31.1033C52.2049 30.8924 51.9204 30.771 51.6218 30.7644Z" fill="#85FFD3"/>
<path d="M100.609 39.1869C99.9052 39.18 99.2328 38.8952 98.7387 38.3946C98.2447 37.894 97.9693 37.2184 97.9727 36.5156C97.9761 35.8128 98.2581 35.1399 98.7571 34.6442C99.256 34.1484 99.9312 33.8701 100.635 33.8701C101.339 33.8701 102.014 34.1484 102.513 34.6442C103.012 35.1399 103.294 35.8128 103.297 36.5156C103.301 37.2184 103.025 37.894 102.531 38.3946C102.037 38.8952 101.365 39.18 100.661 39.1869H100.609ZM100.609 35.3186C100.303 35.3255 100.012 35.4524 99.7985 35.672C99.5854 35.8917 99.4674 36.1863 99.4703 36.4921C99.477 36.7952 99.602 37.0836 99.8186 37.296C100.035 37.5084 100.326 37.6279 100.63 37.6292C100.936 37.6227 101.228 37.4958 101.441 37.2761C101.547 37.1669 101.63 37.0376 101.686 36.8958C101.741 36.7541 101.767 36.6027 101.763 36.4506C101.761 36.1476 101.639 35.8578 101.424 35.644C101.208 35.4302 100.918 35.3096 100.614 35.3083L100.609 35.3186Z" fill="#FFCEE6"/>
<path d="M97.3674 56.5964C96.6551 56.5951 95.9716 56.3148 95.4641 55.8158C94.9565 55.3167 94.6653 54.6387 94.653 53.9275C94.6451 53.5714 94.7082 53.2173 94.8385 52.8857C94.9689 52.5541 95.1639 52.2517 95.4122 51.996C95.7852 51.6084 96.265 51.3401 96.7909 51.2251C97.3167 51.11 97.8649 51.1533 98.3661 51.3496C98.8672 51.5459 99.2988 51.8863 99.606 52.3276C99.9133 52.7689 100.083 53.2914 100.092 53.8289C100.105 54.5482 99.8308 55.2432 99.3307 55.7611C98.8305 56.279 98.145 56.5775 97.4246 56.5912L97.3674 56.5964ZM97.3674 52.7229C97.0599 52.7229 96.7649 52.8449 96.5474 53.062C96.33 53.2792 96.2078 53.5737 96.2078 53.8808C96.2078 54.1879 96.33 54.4824 96.5474 54.6995C96.7649 54.9167 97.0599 55.0387 97.3674 55.0387C97.6608 55.019 97.9359 54.8888 98.1367 54.6743C98.3376 54.4598 98.4494 54.1771 98.4494 53.8834C98.4494 53.5897 98.3376 53.307 98.1367 53.0925C97.9359 52.878 97.6608 52.7477 97.3674 52.7281V52.7229Z" fill="#FFBAB5"/>
<path d="M27.887 29.9446C27.3535 29.9455 26.8316 29.7895 26.3865 29.4959C25.9413 29.2024 25.5927 28.7844 25.3841 28.2941C25.1755 27.8039 25.1162 27.2631 25.2136 26.7394C25.311 26.2157 25.5608 25.7322 25.9317 25.3495C26.1776 25.0914 26.4726 24.885 26.7994 24.7423C27.1262 24.5997 27.4783 24.5236 27.835 24.5187C28.5538 24.5116 29.2466 24.7869 29.7641 25.2852C30.2816 25.7834 30.5823 26.4648 30.6014 27.1823C30.6153 27.8977 30.3455 28.5896 29.8506 29.107C29.3558 29.6245 28.6761 29.9256 27.9597 29.9446H27.887ZM27.887 26.0764C27.5807 26.0832 27.2896 26.2102 27.0764 26.4298C26.8633 26.6494 26.7453 26.944 26.7481 27.2498C26.7563 27.5561 26.8846 27.8468 27.1054 28.0595C27.3262 28.2722 27.6218 28.3898 27.9286 28.387C28.0806 28.3843 28.2306 28.3516 28.37 28.2908C28.5094 28.2301 28.6353 28.1424 28.7407 28.0329C28.846 27.9233 28.9286 27.7941 28.9838 27.6526C29.039 27.5111 29.0656 27.3601 29.0622 27.2083C29.0594 27.0569 29.0269 26.9076 28.9664 26.7687C28.9058 26.6299 28.8185 26.5044 28.7094 26.3993C28.6002 26.2941 28.4714 26.2115 28.3303 26.1561C28.1892 26.1007 28.0386 26.0736 27.887 26.0764Z" fill="#85FFD3"/>
<path d="M19.8612 41.2008C19.7073 41.2003 19.5551 41.1685 19.414 41.1073C19.267 41.0443 19.1366 40.9482 19.0329 40.8267C18.9292 40.7051 18.8549 40.5613 18.816 40.4064C18.7725 40.246 18.7819 40.076 18.8427 39.9214C18.9035 39.7668 19.0126 39.6359 19.1537 39.548C19.2948 39.46 19.4605 39.4198 19.6263 39.4332C19.7921 39.4466 19.9492 39.5129 20.0744 39.6223C20.2397 39.6425 20.3942 39.7149 20.5154 39.8291C20.6365 39.9433 20.7178 40.0932 20.7475 40.2568C20.7771 40.4205 20.7535 40.5894 20.6801 40.7387C20.6067 40.888 20.4874 41.0099 20.3396 41.0866C20.1915 41.1623 20.0275 41.2015 19.8612 41.2008Z" fill="#CFD8DC"/>
<path d="M111.092 28.5945C110.917 28.5952 110.747 28.5373 110.609 28.4299C110.471 28.3226 110.373 28.1721 110.331 28.0026C110.289 27.8331 110.306 27.6545 110.378 27.4953C110.45 27.3362 110.573 27.2058 110.728 27.125L111.144 26.9121C111.326 26.8202 111.536 26.803 111.731 26.8641C111.925 26.9252 112.088 27.0599 112.184 27.2393C112.273 27.4219 112.288 27.6317 112.226 27.8251C112.164 28.0185 112.03 28.1806 111.851 28.2777L111.446 28.4906C111.337 28.5512 111.216 28.5867 111.092 28.5945Z" fill="#E9FFB4"/>
<path d="M21.618 36.3103C21.4284 36.3144 21.2436 36.2499 21.098 36.1286C20.1833 35.3702 19.0503 34.9228 17.8636 34.8513C17.7613 34.846 17.6611 34.8205 17.5688 34.7763C17.4765 34.7321 17.3938 34.6701 17.3256 34.5938C17.2574 34.5175 17.2051 34.4285 17.1716 34.3319C17.1381 34.2352 17.1241 34.1329 17.1304 34.0309C17.1438 33.8256 17.2374 33.6339 17.3911 33.4969C17.5448 33.36 17.7462 33.2888 17.952 33.2988C19.4785 33.3841 20.937 33.9576 22.112 34.9344C22.1927 34.9977 22.2601 35.0763 22.3104 35.1656C22.3606 35.255 22.3927 35.3534 22.4047 35.4552C22.4168 35.557 22.4087 35.6601 22.3807 35.7588C22.3528 35.8574 22.3057 35.9495 22.242 36.0299C22.1667 36.1216 22.0712 36.1945 21.9629 36.2432C21.8547 36.2918 21.7366 36.3148 21.618 36.3103Z" fill="#FFBAB5"/>
</svg>
